<svg width="220" height="30" viewBox="0 0 220 30" fill="none" xmlns="http://www.w3.org/2000/svg">
<g clip-path="url(#clip0_3183_142353)">
<path d="M73.5464 0H80.3211V30H73.5464V0Z" fill="#292929"></path>
<path d="M83.2224 0H89.9971L101.608 18.813V0H108.383V30H101.741L89.9971 10.975V30H83.2224V0Z" fill="#292929"></path>
<path d="M45.4816 0H52.2563L63.8675 18.813V0H70.6421V30H64L52.2563 10.975V30H45.4816V0Z" fill="#292929"></path>
<path d="M111.284 0H129.67V5.8056H118.059V11.6112H128.704V17.4168H118.059V24.1915H129.67V29.9971H111.284V0Z" fill="#292929"></path>
<path d="M136.445 0H143.219V13.3166L155.8 9.41384V0H162.574V30H155.8V16.0177L143.219 19.9175V30H136.445V0Z" fill="#292929"></path>
<path d="M165.476 0H172.25V30H165.476V0Z" fill="#292929"></path>
<path d="M191.287 17.0486C194.934 15.6406 197.894 13.2165 197.894 9.24006C197.894 5.9676 196.486 3.52283 194.412 2.02945C192.339 0.536082 189.814 0 186.583 0H175.155V30H181.929V19.9175L185.14 18.9219L192.309 30H199.85L191.287 17.0486ZM189.732 11.2931C189.585 11.3726 189.429 11.4404 189.267 11.4904L189.169 11.5199C186.754 12.268 184.342 13.0162 181.926 13.7644V5.80265H188.451C189.932 5.80265 191.116 7.12224 191.116 8.60088C191.116 9.87629 190.563 10.8365 189.729 11.2901L189.732 11.2931Z" fill="#292929"></path>
<path d="M201.281 0H219.667V5.8056H208.056V11.6112H218.701V17.4168H208.056V24.1915H219.667V29.9971H201.281V0Z" fill="#292929"></path>
<path d="M25.408 0L14.6009 16.2916V30H23.0633L33.8704 13.7054V0H25.408Z" fill="#664FFF"></path>
<path d="M10.8071 0L0 16.2916V30H8.46244L19.2695 13.7054V0H10.8071Z" fill="#664FFF"></path>
</g>
<defs>
<clipPath id="clip0_3183_142353">
<rect width="219.667" height="30" fill="white"></rect>
</clipPath>
</defs>
</svg>